<svg width="25" height="25" viewBox="0 0 34 29" fill="none" xmlns="http://www.w3.org/2000/svg">
<path d="M19.6858 11.4074C19.6858 10.1557 18.7649 9.46465 17.1476 9.46465H14.1726V13.4975H16.6813C18.6174 13.4918 19.6858 12.7441 19.6858 11.4074ZM30.5174 10.6824C29.9566 8.93223 29.874 6.78555 29.9389 5.12598C30.0038 3.39844 28.599 1.8125 26.7101 1.8125H7.30175C5.40696 1.8125 4.008 3.4041 4.07293 5.12598C4.13196 6.78555 4.05522 8.93223 3.49446 10.6824C2.92779 12.4383 1.97744 13.5484 0.413208 13.69V15.3043C1.97154 15.4459 2.92779 16.5561 3.49446 18.3119C4.05522 20.0621 4.13786 22.2088 4.07293 23.8684C4.008 25.5959 5.41286 27.1818 7.30175 27.1818H26.7042C28.599 27.1818 29.9979 25.5902 29.933 23.8684C29.874 22.2088 29.9507 20.0621 30.5115 18.3119C31.0781 16.5561 32.0285 15.4459 33.5868 15.3043V13.69C32.0344 13.5484 31.0781 12.4383 30.5174 10.6824ZM17.7202 21.2459H11.9413V7.74844H17.6906C20.2465 7.74844 21.9229 9.07383 21.9229 11.1129C21.9229 12.5459 20.7955 13.826 19.3552 14.0469V14.1205C21.3149 14.3244 22.6313 15.6271 22.6313 17.4227C22.6313 19.8072 20.7837 21.2459 17.7202 21.2459ZM17.1299 15.0891H14.1726V19.5297H17.2597C19.2785 19.5297 20.3469 18.7537 20.3469 17.2924C20.3469 15.8367 19.249 15.0891 17.1299 15.0891Z" fill="#FEA609"/>
</svg>
