<svg width="84" height="21" viewBox="0 0 127 32" fill="none" xmlns="http://www.w3.org/2000/svg">
<path d="M0.894986 24.8331V12.5955H18.5228V11.8797H0.894986V0.715597H19.6373V0H0.069397V25.5487H19.8023V24.8331H0.895234H0.894986ZM35.6964 7.1564L28.3894 15.4938L21.2473 7.15662H20.1739L27.8939 16.0307L19.4306 25.5485H20.4215L28.3889 16.567L36.3978 25.5485H37.4298L28.9256 16.0303L36.6867 7.15619H35.6961L35.6964 7.1564ZM39.9071 31.8464V20.3962H39.9896C40.4851 22.066 41.4621 23.4079 42.9208 24.4218C44.3794 25.4355 46.237 25.9426 48.4937 25.9426C49.9524 25.9426 51.246 25.6861 52.3744 25.1733C53.5028 24.6604 54.4453 23.9626 55.2023 23.0799C55.959 22.1973 56.537 21.1715 56.9362 20.0026C57.3351 18.8338 57.5348 17.6052 57.5348 16.3172C57.5348 14.9335 57.3282 13.6571 56.9154 12.4884C56.5026 11.3194 55.904 10.3055 55.1198 9.44687C54.3353 8.58803 53.3858 7.91989 52.2711 7.44311C51.1566 6.96591 49.8974 6.7273 48.4937 6.7273C47.4204 6.7273 46.4228 6.86454 45.5008 7.13879C44.5789 7.41326 43.7602 7.8007 43.0446 8.30174C42.3249 8.80664 41.6984 9.40393 41.1868 10.0729C40.664 10.7529 40.2648 11.4983 39.9896 12.3095H39.9071V7.1564H39.0815V31.8464H39.9071ZM48.4937 25.2624C45.907 25.2624 43.8289 24.4931 42.2602 22.9545C40.6915 21.4159 39.9071 19.2032 39.9071 16.3168C39.9071 15.124 40.0998 13.9909 40.4851 12.9175C40.8704 11.8441 41.4277 10.9017 42.1569 10.0907C42.8863 9.27957 43.7877 8.63549 44.8608 8.1585C45.9342 7.68129 47.1453 7.44268 48.4937 7.44268C49.8699 7.44268 51.0741 7.68129 52.1061 8.1585C53.138 8.63549 53.9914 9.28558 54.6656 10.1086C55.3398 10.9315 55.849 11.8739 56.1931 12.9353C56.537 13.9969 56.709 15.124 56.709 16.3168C56.709 17.3904 56.5509 18.458 56.2342 19.5194C55.9178 20.5809 55.4292 21.5351 54.7687 22.3822C54.1083 23.2288 53.2622 23.9205 52.2299 24.4574C51.1977 24.9941 49.9524 25.2624 48.4937 25.2624ZM62.0758 25.5487V15.136C62.0758 14.1341 62.2408 13.1559 62.5714 12.2019C62.9014 11.2477 63.4106 10.4067 64.0987 9.67925C64.7867 8.95162 65.6604 8.37906 66.7201 7.96156C67.7796 7.54405 69.0388 7.37117 70.4975 7.44268V6.72709C69.2313 6.70346 68.1238 6.82244 67.1743 7.08489C66.2246 7.34733 65.4059 7.70513 64.7178 8.1585C64.0298 8.61165 63.4795 9.14234 63.0667 9.75076C62.6542 10.3582 62.3481 11.0154 62.1583 11.7008H62.0758V7.1564H61.2502V25.5489H62.0758V25.5487ZM71.5295 16.4957H89.2809C89.3361 15.2314 89.1917 14.0149 88.8475 12.846C88.5036 11.677 87.953 10.6392 87.1963 9.73294C86.4394 8.82642 85.4624 8.09879 84.2651 7.55007C83.0679 7.00134 81.6437 6.72709 79.9925 6.72709C78.8089 6.72709 77.653 6.94185 76.5246 7.37138C75.3962 7.8007 74.4054 8.42674 73.5523 9.24972C72.6992 10.0727 72.0111 11.0806 71.4883 12.2736C70.9655 13.4662 70.7039 14.8259 70.7039 16.3526C70.7039 17.7123 70.8828 18.9827 71.2405 20.1634C71.5983 21.3442 72.1486 22.3701 72.8917 23.2408C73.6351 24.1115 74.5915 24.7854 75.761 25.2624C76.9305 25.7396 78.3411 25.9662 79.9925 25.9423C82.4143 25.9423 84.451 25.3517 86.1021 24.1712C87.7536 22.9902 88.7306 21.3264 89.0333 19.1794H88.2077C87.85 21.2072 86.9347 22.7279 85.4624 23.7416C83.9899 24.7555 82.1392 25.2624 79.9097 25.2624C78.3961 25.2624 77.1163 25.0358 76.0704 24.5827C75.0248 24.1295 74.1715 23.509 73.5109 22.7219C72.8506 21.9346 72.362 21.0103 72.0456 19.9487C71.7289 18.8873 71.557 17.7362 71.5295 16.4957ZM88.4553 15.7801H71.5297C71.612 14.4919 71.8872 13.335 72.355 12.3093C72.8231 11.2833 73.4354 10.4067 74.1923 9.67925C74.949 8.95162 75.8299 8.3971 76.8343 8.01525C77.8388 7.63361 78.9191 7.44268 80.075 7.44268C81.4511 7.44268 82.6618 7.66346 83.7079 8.1048C84.7535 8.54615 85.6274 9.14856 86.3294 9.91184C87.0311 10.6751 87.5608 11.5638 87.9186 12.5775C88.2764 13.5914 88.4553 14.659 88.4553 15.7801ZM106.413 12.5955H107.239C107.239 10.5439 106.551 9.05299 105.175 8.12263C103.799 7.19227 101.927 6.72709 99.5603 6.72709C98.2392 6.72709 97.1247 6.87034 96.2164 7.15662C95.3083 7.44269 94.5652 7.81251 93.9871 8.26566C93.4093 8.71882 92.9965 9.21987 92.7487 9.76859C92.501 10.3173 92.3771 10.8422 92.3771 11.343C92.3771 12.3449 92.5835 13.1441 92.9965 13.7405C93.4093 14.3369 94.056 14.802 94.9366 15.136C95.5422 15.3744 96.23 15.5892 97.0008 15.7803C97.7714 15.971 98.6659 16.1737 99.6842 16.3883C100.592 16.5794 101.487 16.7701 102.368 16.9609C103.248 17.1518 104.026 17.4082 104.7 17.7301C105.374 18.0523 105.925 18.4638 106.351 18.9648C106.778 19.4657 106.991 20.1218 106.991 20.9327C106.991 21.7201 106.778 22.388 106.351 22.9365C105.928 23.4823 105.372 23.9406 104.721 24.2785C104.06 24.6243 103.324 24.8747 102.512 25.0298C101.7 25.1849 100.909 25.2624 100.138 25.2624C97.6339 25.2624 95.7141 24.7794 94.3794 23.8134C93.0446 22.8471 92.3773 21.3264 92.3773 19.2509H91.5515C91.5515 21.565 92.274 23.2586 93.7188 24.3322C95.1638 25.4056 97.3036 25.9423 100.138 25.9423C101.047 25.9423 101.962 25.8528 102.884 25.6739C103.805 25.495 104.631 25.2029 105.361 24.7972C106.084 24.3973 106.691 23.8587 107.136 23.223C107.59 22.5787 107.817 21.7916 107.817 20.8612C107.817 19.9785 107.617 19.2629 107.218 18.7142C106.819 18.1657 106.296 17.7123 105.649 17.3545C105.003 16.9967 104.274 16.7165 103.462 16.5137C102.645 16.3098 101.826 16.1129 101.005 15.9231C99.9947 15.6933 98.9832 15.4667 97.9709 15.2434C97.1041 15.0525 96.2991 14.8259 95.556 14.5634C94.8405 14.301 94.2693 13.9254 93.8427 13.4363C93.416 12.9473 93.2029 12.2496 93.2029 11.343C93.2029 11.1762 93.2579 10.8779 93.3679 10.4485C93.4779 10.019 93.7396 9.58368 94.1524 9.14234C94.5652 8.70121 95.198 8.30754 96.0513 7.96156C96.9044 7.61579 98.0742 7.44268 99.5603 7.44268C100.579 7.44268 101.507 7.53825 102.347 7.72897C103.186 7.91989 103.909 8.224 104.514 8.6415C105.12 9.05901 105.587 9.58969 105.918 10.2338C106.248 10.8781 106.413 11.6652 106.413 12.5955ZM125.527 12.5955H126.353C126.353 10.5439 125.665 9.05299 124.289 8.12263C122.912 7.19227 121.041 6.72709 118.674 6.72709C117.353 6.72709 116.238 6.87034 115.33 7.15662C114.422 7.44269 113.679 7.81251 113.101 8.26566C112.523 8.71882 112.11 9.21987 111.862 9.76859C111.615 10.3173 111.491 10.8422 111.491 11.343C111.491 12.3449 111.697 13.1441 112.11 13.7405C112.523 14.3369 113.17 14.802 114.051 15.136C114.656 15.3744 115.344 15.5892 116.115 15.7803C116.885 15.971 117.78 16.1737 118.798 16.3883C119.706 16.5794 120.601 16.7701 121.481 16.9609C122.362 17.1518 123.139 17.4082 123.814 17.7301C124.488 18.0523 125.039 18.4638 125.465 18.9648C125.892 19.4657 126.105 20.1218 126.105 20.9327C126.105 21.7201 125.892 22.388 125.465 22.9365C125.042 23.4823 124.485 23.9406 123.835 24.2785C123.174 24.6243 122.438 24.8747 121.626 25.0298C120.814 25.1849 120.023 25.2624 119.252 25.2624C116.748 25.2624 114.828 24.7794 113.493 23.8134C112.158 22.8471 111.491 21.3264 111.491 19.2509H110.665C110.665 21.565 111.388 23.2586 112.833 24.3322C114.277 25.4056 116.417 25.9423 119.252 25.9423C120.16 25.9423 121.075 25.8528 121.997 25.6739C122.919 25.495 123.745 25.2029 124.474 24.7972C125.197 24.3973 125.805 23.8587 126.25 23.223C126.704 22.5787 126.931 21.7916 126.931 20.8612C126.931 19.9785 126.731 19.2629 126.332 18.7142C125.933 18.1657 125.41 17.7123 124.763 17.3545C124.117 16.9967 123.387 16.7165 122.576 16.5137C121.759 16.3098 120.94 16.1129 120.119 15.9231C119.109 15.6933 118.097 15.4667 117.085 15.2434C116.218 15.0525 115.413 14.8259 114.67 14.5634C113.954 14.301 113.383 13.9254 112.957 13.4363C112.53 12.9473 112.317 12.2496 112.317 11.343C112.317 11.1762 112.372 10.8779 112.482 10.4485C112.592 10.019 112.854 9.58368 113.266 9.14234C113.679 8.70121 114.312 8.30754 115.165 7.96156C116.018 7.61579 117.188 7.44268 118.674 7.44268C119.693 7.44268 120.621 7.53825 121.461 7.72897C122.3 7.91989 123.022 8.224 123.628 8.6415C124.234 9.05901 124.701 9.58969 125.032 10.2338C125.362 10.8781 125.527 11.6652 125.527 12.5955H125.527Z" fill="#FEA609"/>
</svg>
