<svg width="25" height="25" viewBox="0 0 30 30" fill="none" xmlns="http://www.w3.org/2000/svg">
<g clip-path="url(#clip0_59_414)">
<path fill-rule="evenodd" clip-rule="evenodd" d="M10.5187 0C7.45996 0 4.99996 2.56625 4.99996 5.71C4.99996 7.62125 5.90996 9.31875 7.30871 10.355C6.58781 10.8951 6.00347 11.5966 5.60254 12.4032C5.20161 13.2099 4.99523 14.0992 4.99996 15C4.99996 16.9125 5.90996 18.6087 7.30871 19.645C6.58781 20.1851 6.00347 20.8866 5.60254 21.6932C5.20161 22.4999 4.99523 23.3892 4.99996 24.29C4.99996 27.4337 7.45996 30 10.5187 30C13.5762 30 16.0375 27.4337 16.0375 24.29V19.4625C17.0041 20.2685 18.2226 20.7103 19.4812 20.7113C22.54 20.71 25 18.1437 25 15C25 13.0875 24.0912 11.3913 22.6912 10.355C23.4121 9.81489 23.9964 9.1134 24.3974 8.30676C24.7983 7.50012 25.0047 6.61077 25 5.71C25 2.56625 22.54 0 19.4812 0H10.5187ZM7.07371 5.71C7.07371 3.72125 8.62621 2.12875 10.5187 2.12875H13.9625V9.29125H10.5187C8.62621 9.29125 7.07371 7.6975 7.07371 5.71ZM19.4812 9.29H16.0375V2.1275H19.4812C21.375 2.1275 22.9262 3.72125 22.9262 5.71C22.9262 7.6975 21.375 9.29 19.4812 9.29ZM7.07496 15C7.07496 13.0125 8.62746 11.4188 10.52 11.4188H13.9637V18.5812H10.5187C8.62496 18.5812 7.07371 16.9875 7.07371 15H7.07496ZM16.0375 15C16.0375 13.0125 17.59 11.4188 19.4825 11.4188C21.3762 11.4188 22.9275 13.0113 22.9275 15C22.9275 16.9875 21.3762 18.5812 19.4825 18.5812C17.59 18.5812 16.0387 16.9888 16.0387 15H16.0375ZM7.07496 24.29C7.07496 22.3025 8.62746 20.71 10.52 20.71H13.9637V24.29C13.9637 26.2787 12.4137 27.8713 10.52 27.8713C8.62746 27.8713 7.07496 26.2787 7.07496 24.29Z" fill="#FEA609"/>
</g>
<defs>
<clipPath id="clip0_59_414">
<rect width="30" height="30" fill="white"/>
</clipPath>
</defs>
</svg>
