<svg width="20" height="20" viewBox="0 0 20 20" fill="none" xmlns="http://www.w3.org/2000/svg">
<path fill-rule="evenodd" clip-rule="evenodd" d="M10 1.66667C5.3975 1.66667 1.66667 5.3975 1.66667 10C1.66667 14.6025 5.3975 18.3333 10 18.3333C14.6025 18.3333 18.3333 14.6025 18.3333 10C18.3333 5.3975 14.6025 1.66667 10 1.66667ZM0 10C0 4.47708 4.47708 0 10 0C15.5229 0 20 4.47708 20 10C20 15.5229 15.5229 20 10 20C4.47708 20 0 15.5229 0 10Z" fill="#FEA609"/>
<path fill-rule="evenodd" clip-rule="evenodd" d="M7.9929 18.9461C7.91249 18.842 7.91249 17.9153 7.9929 16.1657C7.12957 16.1957 6.58457 16.1357 6.35665 15.9861C6.01499 15.7611 5.67332 15.0695 5.3704 14.5815C5.06707 14.0936 4.39415 14.0165 4.12249 13.9074C3.85082 13.7982 3.78249 13.354 4.87124 13.6899C5.95999 14.0261 6.0129 14.942 6.35665 15.1557C6.69999 15.3699 7.52124 15.2765 7.89374 15.1049C8.26582 14.9332 8.23832 14.2949 8.30457 14.042C8.38873 13.8057 8.0929 13.7532 8.08624 13.7515C7.7229 13.7515 5.81415 13.3361 5.28957 11.4878C4.7654 9.63905 5.44082 8.43071 5.80124 7.91113C6.04124 7.5653 6.01999 6.82696 5.73749 5.69738C6.76374 5.56613 7.55582 5.88905 8.11374 6.66655C8.11457 6.67071 8.84499 6.23196 9.99998 6.23196C11.155 6.23196 11.5646 6.58946 11.8808 6.66655C12.1971 6.74363 12.45 5.30571 14.4029 5.69738C13.995 6.49863 13.6537 7.49988 13.9142 7.91113C14.175 8.3228 15.1975 9.63113 14.5691 11.4878C14.1504 12.7253 13.3275 13.4799 12.0992 13.7515C11.9583 13.7961 11.8879 13.8686 11.8879 13.9686C11.8879 14.1186 12.0783 14.1353 12.3525 14.8382C12.5354 15.3065 12.5483 16.6449 12.3921 18.8528C11.9962 18.9536 11.6879 19.0211 11.4671 19.0561C11.0767 19.1174 10.6529 19.152 10.2362 19.1649C9.81957 19.1782 9.67457 19.177 9.09873 19.1232C8.72654 19.0893 8.35708 19.0301 7.9929 18.9461Z" fill="#FEA609"/>
</svg>
