<svg width="25" height="25" viewBox="0 0 31 44" fill="none" xmlns="http://www.w3.org/2000/svg">
<path d="M15.5 1.46684L16.7054 0.475372C16.5523 0.325082 16.3661 0.205056 16.1586 0.122939C15.951 0.0408221 15.7267 -0.00158691 15.5 -0.00158691C15.2732 -0.00158691 15.0489 0.0408221 14.8413 0.122939C14.6338 0.205056 14.4476 0.325082 14.2946 0.475372L15.5 1.46684ZM15.5 39.6002L14.2162 40.5066C14.369 40.6811 14.564 40.8221 14.7863 40.9191C15.0087 41.0161 15.2527 41.0665 15.5 41.0665C15.7472 41.0665 15.9912 41.0161 16.2136 40.9191C16.4359 40.8221 16.6309 40.6811 16.7838 40.5066L15.5 39.6002ZM6.10175 28.8583L4.81795 29.7676L6.10175 28.8583ZM6.90535 9.88844L5.69995 8.89404L6.90535 9.88257V9.88844ZM24.0946 9.88844L25.3 8.89697L24.0946 9.88551V9.88844ZM24.8982 28.8583L26.182 29.7676L24.8982 28.8583ZM17.1333 44.0002V1.46684H13.8666V44.0002H17.1333ZM16.7838 38.6938L7.38555 27.9548L4.81795 29.7676L14.2162 40.5095L16.7838 38.6967V38.6938ZM8.10748 10.877L16.7086 2.45831L14.2913 0.475372L5.69995 8.89404L8.10422 10.877H8.10748ZM14.2946 2.45831L22.8924 10.877L25.3 8.89697L16.7054 0.478305L14.2913 2.45537L14.2946 2.45831ZM23.6144 27.9519L14.2162 38.6938L16.7838 40.5066L26.182 29.7647L23.6144 27.9519ZM22.8924 10.8799C25.2462 13.1873 26.6106 16.1705 26.7423 19.2974C26.8739 22.4243 25.7642 25.4915 23.6111 27.9519L26.182 29.7647C28.8136 26.7571 30.1696 23.0076 30.0081 19.1854C29.8465 15.3632 28.1779 11.7169 25.3 8.89697L22.8924 10.877V10.8799ZM7.38555 27.9519C5.23289 25.4912 4.12375 22.4238 4.25598 19.2969C4.38821 16.17 5.75321 13.1869 8.10748 10.8799L5.69995 8.89404C2.82199 11.7139 1.15337 15.3603 0.991817 19.1825C0.830266 23.0047 2.18629 26.7541 4.81795 29.7618L7.38555 27.949V27.9519Z" fill="#FEA609"/>
</svg>
