<svg width="92" height="35" viewBox="0 0 92 35" fill="none" xmlns="http://www.w3.org/2000/svg">
<path d="M21.7526 9.12503H39.0728V9.99448H23.3402V16.5377H38.1348V17.407H23.3402V24.5908H39.2533V25.4602H21.7526V9.12503ZM40.6246 9.12503H42.4648L50.6197 16.3089L58.955 9.12492L70.2924 0L51.6661 17.0639L61.2645 25.4602H59.352L50.6197 17.8189L41.8513 25.4602H39.975L49.6455 17.0638L40.6244 9.12503H40.6246ZM61.95 9.99448V9.12492H81.688V9.99437H72.5947V25.4601H71.007V9.99448H61.95ZM0.0842896 9.12492H2.06889L29.4354 34.9867L18.1263 25.4601L1.74407 10.3605L1.67197 25.4603H0.0842896V9.12492ZM81.528 24.3283C81.2035 24.3283 80.9603 24.1697 80.9603 23.9645C80.9603 23.7595 81.2035 23.6006 81.528 23.6006C81.8562 23.6006 82.0956 23.7593 82.0956 23.9645C82.0956 24.1696 81.8562 24.3283 81.528 24.3283ZM83.088 23.3712H83.9377C83.9491 23.6617 84.2851 23.8571 84.7794 23.8571C85.3316 23.8571 85.6444 23.6471 85.6444 23.2539V20.7632H86.5095V23.2563C86.5095 23.9645 85.8607 24.3723 84.7871 24.3723C83.7791 24.3723 83.088 23.9767 83.088 23.3711V23.3712ZM87.6409 23.3395H88.4982C88.5716 23.6739 89.089 23.8863 89.8344 23.8863C90.5294 23.8863 91.0392 23.6592 91.0392 23.3467C91.0392 23.0781 90.7147 22.917 89.9772 22.8071L89.2589 22.6972C88.2509 22.5482 87.7915 22.2405 87.7915 21.7229C87.7915 21.0954 88.6024 20.6778 89.8188 20.6778C90.9502 20.6778 91.7767 21.0953 91.8269 21.6887H90.985C90.9039 21.3639 90.4559 21.1612 89.8072 21.1612C89.1238 21.1612 88.6682 21.3688 88.6682 21.6862C88.6682 21.9376 88.9615 22.0818 89.6875 22.1892L90.3015 22.2845C91.4445 22.453 91.9157 22.746 91.9157 23.2759C91.9157 23.9499 91.0894 24.3723 89.7688 24.3723C88.533 24.3723 87.7026 23.9693 87.6409 23.3393V23.3395Z" fill="#FEA609"/>
</svg>
