<svg width="70" height="36" viewBox="0 0 104 55" fill="none" xmlns="http://www.w3.org/2000/svg">
<path d="M51.3987 48.5547C51.0575 48.5547 50.7163 48.4903 50.4075 48.3828L47.2875 47.1582C46.8162 46.9864 47.0437 46.9219 47.2062 46.8897C47.8237 46.75 47.9538 46.7178 48.62 46.46C48.685 46.4385 48.7825 46.4492 48.8475 46.4707L51.2525 47.416C51.3337 47.4483 51.4637 47.4483 51.545 47.416L60.9375 43.8282C61.0187 43.7959 61.0837 43.7315 61.0837 43.6563V36.4912C61.0837 36.416 61.035 36.3516 60.9375 36.3194L51.545 32.7422C51.4637 32.71 51.35 32.71 51.2525 32.7422L41.86 36.3194C41.7625 36.3516 41.7137 36.4268 41.7137 36.4912V43.6563C41.7137 43.7207 41.7787 43.7852 41.86 43.8174L44.4275 44.7949C45.825 45.2569 46.6862 44.709 46.6862 44.1719V37.0928C46.6862 36.9961 46.8 36.9102 46.9625 36.9102H48.1487C48.295 36.9102 48.425 36.9854 48.425 37.0928V44.1719C48.425 45.4073 47.4175 46.1055 45.6462 46.1055C45.11 46.1055 44.6712 46.1055 43.485 45.7188L41.015 44.7842C40.4137 44.5479 40.0238 44.1182 40.0238 43.6563V36.4912C40.0238 36.0293 40.3975 35.5889 41.015 35.3633L50.4075 31.7754C51.0088 31.5498 51.7887 31.5498 52.3737 31.7754L61.7663 35.3633C62.3675 35.5996 62.7575 36.0293 62.7575 36.4912V43.6563C62.7575 44.1182 62.3837 44.5586 61.7663 44.7842L52.3737 48.3721C52.0975 48.4903 51.7562 48.5547 51.3987 48.5547ZM58.9875 41.4864C58.9875 40.1436 57.6225 39.7891 54.73 39.5313C51.805 39.2735 51.5125 39.1446 51.5125 38.6934C51.5125 38.3174 51.7562 37.8233 53.9175 37.8233C55.8512 37.8233 56.5662 38.1026 56.8587 38.9619C56.8912 39.0479 56.9887 39.1016 57.1187 39.1016H58.3375C58.4187 39.1016 58.4837 39.0801 58.5325 39.0479C58.5812 39.0049 58.6138 38.9619 58.5975 38.9082C58.4025 37.4258 56.9237 36.7383 53.9175 36.7383C51.2362 36.7383 49.6437 37.4903 49.6437 38.7364C49.6437 40.1006 51.2362 40.4658 53.8037 40.6377C56.875 40.8418 57.1187 41.1319 57.1187 41.5293C57.1187 42.2276 56.2738 42.5176 54.2912 42.5176C51.805 42.5176 51.2525 42.1094 51.0737 41.293C51.0575 41.2071 50.9437 41.1426 50.7975 41.1426H49.5788C49.4325 41.1426 49.3025 41.2178 49.3025 41.3252C49.3025 42.3672 50.1637 43.6133 54.275 43.6133C57.2812 43.6133 58.9875 42.8399 58.9875 41.4864ZM67.8438 36.1045C67.8438 36.7598 67.0312 37.2969 66.04 37.2969C65.0487 37.2969 64.2362 36.7598 64.2362 36.1045C64.2362 35.4278 65.0812 34.9121 66.04 34.9121C67.015 34.9014 67.8438 35.4278 67.8438 36.1045ZM67.5512 36.1045C67.5512 35.5459 66.8687 35.1055 66.0237 35.1055C65.195 35.1055 64.5125 35.5459 64.5125 36.1045C64.5125 36.6631 65.195 37.1143 66.0237 37.1143C66.8687 37.1035 67.5512 36.6524 67.5512 36.1045ZM66.82 36.7705H66.3975C66.3812 36.7061 66.3162 36.3623 66.3162 36.3516C66.2837 36.2764 66.2512 36.2334 66.105 36.2334H65.7475V36.7705H65.3575V35.4278H66.0562C66.3 35.4278 66.7712 35.4278 66.7712 35.7823C66.7712 36.0293 66.5275 36.083 66.3812 36.1153C66.6575 36.126 66.6738 36.2442 66.7225 36.416C66.7387 36.5235 66.7712 36.7061 66.82 36.7705ZM66.365 35.8252C66.365 35.6426 66.17 35.6426 66.0725 35.6426H65.7475V36.0186H66.0562C66.3162 36.0186 66.365 35.9004 66.365 35.8252ZM22.3112 20.5176C22.3112 20.2276 22.0837 19.9698 21.71 19.8301L11.7487 16.0381C11.5863 15.9737 11.3912 15.9414 11.1962 15.9307H11.0988C10.9038 15.9307 10.725 15.9737 10.5462 16.0381L0.60125 19.8301C0.2275 19.9698 0 20.2383 0 20.5176L0.01625 30.7227C0.01625 30.8623 0.13 30.9912 0.30875 31.0664C0.4875 31.1416 0.715 31.1416 0.91 31.0664L6.825 28.8213C7.19875 28.6709 7.42625 28.4131 7.42625 28.1338V23.3643C7.42625 23.085 7.65375 22.8164 8.0275 22.6768L10.5462 21.7207C10.7413 21.6455 10.9362 21.6133 11.1475 21.6133C11.3587 21.6133 11.57 21.6455 11.7487 21.7207L14.2675 22.6768C14.6412 22.8164 14.8687 23.085 14.8687 23.3643V28.1338C14.8687 28.4131 15.0962 28.6817 15.47 28.8213L21.385 31.0664C21.5637 31.1416 21.8075 31.1416 21.9862 31.0664C22.165 31.002 22.2787 30.8623 22.2787 30.7227L22.3112 20.5176ZM76.7812 9.37796V28.3272C76.7812 28.6065 76.5537 28.875 76.18 29.0147L66.2188 32.8174C65.845 32.9571 65.39 32.9571 65.0163 32.8174L55.055 29.0147C54.6812 28.875 54.4538 28.6065 54.4538 28.3272V20.7217C54.4538 20.4424 54.6812 20.1739 55.055 20.0342L65.0163 16.2315C65.39 16.0918 65.845 16.0918 66.2188 16.2315L68.705 17.1768C68.9812 17.2842 69.3388 17.1446 69.3388 16.9405V6.8428C69.3388 6.54202 69.8262 6.34866 70.2325 6.49905L76.1637 8.69046C76.5375 8.81936 76.7812 9.08792 76.7812 9.37796ZM69.3062 23.2246C69.3062 23.1494 69.2412 23.085 69.16 23.0528L65.7475 21.7422C65.65 21.71 65.5362 21.71 65.4388 21.7422L62.0262 23.0528C61.9287 23.085 61.88 23.1494 61.88 23.2246V25.835C61.88 25.9102 61.945 25.9746 62.0262 26.0069L65.4388 27.3067C65.5362 27.3389 65.65 27.3389 65.7312 27.3067L69.1437 26.0069C69.2412 25.9746 69.29 25.9102 69.29 25.835V23.2246H69.3062ZM103.399 23.1494C103.772 23.0098 104 22.7412 104 22.4619V20.625C104 20.3457 103.772 20.0772 103.399 19.9375L93.5025 16.1348C93.1288 15.9951 92.6737 15.9951 92.3 16.1348L82.3388 19.9375C81.965 20.0772 81.7375 20.3457 81.7375 20.625V28.2305C81.7375 28.5205 81.965 28.7783 82.3388 28.918L92.235 32.6455C92.5925 32.7852 93.0475 32.7852 93.4212 32.6455L99.4012 30.4434C99.8075 30.293 99.8075 29.9063 99.4012 29.7559L89.375 25.9532C89.18 25.878 89.0662 25.7491 89.0662 25.6094V23.2246C89.0662 23.085 89.18 22.9561 89.375 22.8809L92.495 21.6885C92.6738 21.6133 92.9175 21.6133 93.0963 21.6885L96.2162 22.8809C96.395 22.9561 96.525 23.085 96.525 23.2246V25.0938C96.525 25.3946 97.0287 25.5879 97.435 25.4375L103.399 23.1494ZM90.8375 23.5254C90.7725 23.5576 90.7237 23.6006 90.7237 23.6543V25.1153C90.7237 25.169 90.7725 25.2227 90.8375 25.2442L92.755 25.9746C92.82 26.0069 92.9175 26.0069 92.9825 25.9746L94.9 25.2442C94.965 25.2119 95.0137 25.169 95.0137 25.1153V23.6543C95.0137 23.6006 94.965 23.5469 94.9 23.5254L92.9825 22.7949C92.9175 22.7627 92.82 22.7627 92.755 22.7949L90.8375 23.5254ZM49.53 28.1983V20.6358C49.53 20.3565 49.27 20.0879 48.8962 19.9483L38.9675 16.167C38.6262 16.0381 38.155 16.0166 37.765 16.167L27.8363 19.9483C27.4625 20.0879 27.2025 20.3457 27.2025 20.6358V28.1983C27.2025 28.4991 27.5112 28.7569 27.8525 28.8858L37.7975 32.667C38.1875 32.8174 38.6425 32.8067 39 32.667L48.9125 28.8858C49.205 28.7783 49.4162 28.5957 49.4975 28.3809C49.5137 28.3272 49.53 28.2627 49.53 28.1983ZM37.4562 14.7813L37.3262 14.835H37.505L37.4562 14.7813ZM49.8387 28.7676L49.7737 28.6924V28.7891L49.8387 28.7676Z" fill="#FEA609"/>
</svg>
