<svg width="25" height="25" viewBox="0 0 34 30" fill="none" xmlns="http://www.w3.org/2000/svg">
<path d="M27.7711 10.3828C27.4125 10.2773 27.0539 10.1777 26.6953 10.084C26.7551 9.86719 26.8082 9.65039 26.8613 9.43359C27.6781 5.94141 27.1402 3.13477 25.3273 2.20898C23.5809 1.32422 20.732 2.24414 17.85 4.45898C17.5645 4.67578 17.2855 4.9043 17.0199 5.13281C16.8406 4.98047 16.6547 4.82812 16.4688 4.68164C13.4473 2.31445 10.4191 1.31836 8.60625 2.25C6.86641 3.14062 6.34844 5.7832 7.07891 9.08789C7.15195 9.41602 7.23164 9.73828 7.32461 10.0664C6.89961 10.1719 6.48125 10.2891 6.08945 10.4121C2.54336 11.4961 0 13.207 0 14.9766C0 16.8047 2.70938 18.6387 6.39492 19.752C6.69375 19.8398 6.99258 19.9277 7.29805 20.0039C7.19844 20.3555 7.11211 20.7012 7.03242 21.0586C6.33516 24.3105 6.87969 26.8887 8.61953 27.7734C10.4125 28.6875 13.4273 27.75 16.3625 25.4824C16.5949 25.3008 16.8273 25.1133 17.0598 24.9141C17.352 25.166 17.6574 25.4062 17.9629 25.6406C20.8051 27.7969 23.6141 28.6699 25.3473 27.7852C27.1402 26.8711 27.7246 24.0996 26.9676 20.7246C26.9078 20.4668 26.8414 20.2031 26.7684 19.9336C26.9809 19.8809 27.1867 19.8223 27.3926 19.7637C31.2242 18.6445 34 16.834 34 14.9766C34 13.2012 31.3836 11.4785 27.7711 10.3828ZM18.7863 5.4082C21.2566 3.50977 23.5609 2.76562 24.6102 3.29883C25.7324 3.86719 26.1641 6.16406 25.4602 9.18164C25.4137 9.38086 25.3672 9.57422 25.3074 9.76758C23.8332 9.47461 22.3391 9.26367 20.8383 9.14648C19.975 8.05664 19.032 7.01367 18.0094 6.03516C18.2684 5.81836 18.5207 5.61328 18.7863 5.4082ZM11.1031 18.0176C11.4418 18.5273 11.7871 19.0371 12.1523 19.5352C11.1164 19.4355 10.0871 19.2891 9.07109 19.0957C9.36328 18.252 9.72852 17.3789 10.1535 16.4883C10.459 17.0039 10.7711 17.5137 11.1031 18.0176ZM9.09101 10.9687C10.0473 10.7812 11.0633 10.6289 12.1191 10.5117C11.7672 10.998 11.4219 11.4961 11.0965 12C10.7711 12.498 10.4523 13.0078 10.1535 13.5234C9.73516 12.6504 9.3832 11.7949 9.09101 10.9687ZM10.9105 15.0059C11.3488 14.1973 11.827 13.4062 12.3316 12.627C12.8363 11.8477 13.3809 11.0918 13.952 10.3477C14.948 10.2832 15.9641 10.248 17 10.248C18.0359 10.248 19.0586 10.2832 20.048 10.3477C20.6125 11.0859 21.1504 11.8418 21.6617 12.6152C22.173 13.3887 22.6512 14.1797 23.1027 14.9824C22.6578 15.791 22.1797 16.5879 21.6684 17.373C21.1637 18.1523 20.6258 18.9082 20.0613 19.6582C19.0719 19.7227 18.0426 19.752 17 19.752C15.9574 19.752 14.948 19.7227 13.9719 19.6699C13.3941 18.9258 12.8496 18.1641 12.3383 17.3848C11.827 16.6055 11.3555 15.8145 10.9105 15.0059ZM22.9035 18.0059C23.2422 17.4902 23.5609 16.9687 23.873 16.4414C24.298 17.291 24.6699 18.1523 24.9953 19.0371C23.966 19.2422 22.9234 19.4004 21.8742 19.5059C22.2328 19.0137 22.5715 18.5098 22.9035 18.0059ZM23.8598 13.5234C23.5477 13.0078 23.2289 12.4922 22.8969 11.9883C22.5715 11.4902 22.2328 10.998 21.8809 10.5117C22.95 10.6289 23.9727 10.7871 24.9289 10.9805C24.6234 11.8477 24.2648 12.6914 23.8598 13.5234ZM17.0133 6.93164C17.7105 7.59961 18.368 8.30273 18.9789 9.0293C17.6641 8.97656 16.3426 8.97656 15.0277 9.0293C15.6785 8.27344 16.3492 7.57031 17.0133 6.93164ZM9.31016 3.33984C10.4258 2.76562 12.9027 3.58594 15.5125 5.625C15.6785 5.75391 15.8445 5.89453 16.0172 6.03516C14.9879 7.01367 14.0383 8.05664 13.1684 9.14648C11.6676 9.26367 10.1801 9.46875 8.70586 9.75586C8.61953 9.45703 8.54648 9.15234 8.47344 8.84766C7.84922 6.01172 8.26094 3.87305 9.31016 3.33984ZM7.6832 18.7852C7.4043 18.7148 7.13203 18.6387 6.85977 18.5566C5.44531 18.1641 3.83828 17.543 2.67617 16.7285C2.00547 16.3184 1.55391 15.6855 1.42773 14.9766C1.42773 13.9043 3.52617 12.5332 6.5543 11.6016C6.93281 11.4844 7.31797 11.3789 7.70312 11.2793C8.15469 12.5508 8.69922 13.7988 9.33008 15.0059C8.69258 16.2305 8.14141 17.4961 7.6832 18.7852ZM15.4262 24.5273C14.3305 25.4121 13.0621 26.1152 11.6809 26.5957C10.9437 26.9062 10.0938 26.9355 9.33672 26.6719C8.28086 26.1328 7.84258 24.0645 8.44023 21.2812C8.51328 20.9531 8.59297 20.625 8.68594 20.3027C10.1734 20.584 11.6742 20.7773 13.1949 20.877C14.0715 21.9727 15.0344 23.0215 16.0637 24.0059C15.8512 24.1875 15.6387 24.3633 15.4262 24.5273ZM17.0531 23.1035C16.3758 22.459 15.6984 21.7441 15.041 20.9766C15.6785 21 16.3359 21.0117 17 21.0117C17.684 21.0117 18.3547 21 19.0187 20.9707C18.4078 21.7148 17.7504 22.4238 17.0531 23.1035ZM25.7324 24.8613C25.6727 25.5762 25.2742 26.2441 24.6367 26.6953C23.5809 27.2344 21.3297 26.5312 18.8992 24.6914C18.6203 24.4805 18.3414 24.252 18.0559 24.0176C19.0719 23.0273 20.0082 21.9785 20.8582 20.877C22.3789 20.7656 23.893 20.5605 25.3871 20.2617C25.4535 20.502 25.5133 20.7422 25.5664 20.9766C25.8918 22.2422 25.9449 23.5605 25.7324 24.8613ZM26.941 18.5625C26.7551 18.6152 26.5691 18.668 26.3766 18.7148C25.9117 17.4375 25.3406 16.1895 24.6832 14.9766C25.3207 13.7812 25.8586 12.5508 26.3102 11.291C26.6555 11.3789 26.9875 11.4727 27.3063 11.5664C30.4008 12.5039 32.5723 13.8984 32.5723 14.9648C32.5723 16.1133 30.2547 17.5957 26.941 18.5625ZM17 17.6836C18.6801 17.6836 20.0414 16.4824 20.0414 15C20.0414 13.5176 18.6801 12.3164 17 12.3164C15.3199 12.3164 13.9586 13.5176 13.9586 15C13.9586 16.4824 15.3199 17.6836 17 17.6836Z" fill="#FEA609"/>
</svg>
