<svg width="76" height="31" viewBox="0 0 104 47" fill="none" xmlns="http://www.w3.org/2000/svg">
<path d="M49.049 35.2638C49.0003 35.3212 48.9515 35.3671 49.049 35.2638V35.2638ZM89.5327 26.9376C86.2644 26.937 83.0396 27.3791 80.1077 28.2296C79.1489 27.0907 78.1577 26.0954 77.9952 25.3489C77.8002 24.478 77.5889 23.9613 77.8164 22.9277C78.0439 21.8941 79.0677 20.4298 79.0514 20.3245C79.0352 20.2193 78.8239 19.6929 76.7277 19.6833C74.6314 19.6737 72.8277 19.9226 72.618 20.248C72.2478 20.8426 71.9598 21.4539 71.7568 22.0759C71.383 23.1956 67.5659 27.196 65.4047 29.2823C64.6897 28.4689 64.0884 27.7511 63.9584 27.1769C63.7634 26.306 63.5522 25.7892 63.7797 24.7556C64.0072 23.722 65.0309 22.2577 65.0147 22.1525C64.9984 22.0472 64.7872 21.5208 62.6925 21.5112C60.5979 21.5017 58.7925 21.7505 58.5813 22.0759C58.37 22.4013 58.1425 23.1669 57.72 23.9038C57.2975 24.6407 52.2129 31.3017 50.882 33.0339C50.1995 33.9144 49.6145 34.6226 49.192 35.1011C49.127 35.1777 49.0783 35.2255 49.0458 35.2638C49.0945 35.2159 49.127 35.1681 49.127 35.1872C48.7695 35.5987 48.5583 35.8284 48.5583 35.8284V35.838C48.282 36.1443 47.9733 36.4218 47.827 36.4218C47.7295 36.4218 47.5183 35.6179 47.8758 34.5173C48.6395 32.2013 50.4433 28.6028 50.427 28.4784C50.4108 28.4114 50.7683 27.7894 49.2408 27.4544C47.762 27.1386 47.2258 27.665 47.0958 27.665C46.9658 27.665 46.8683 27.8564 46.8683 27.8564C46.8683 27.8564 48.5095 23.7986 43.7174 23.7986C40.7274 23.7986 36.5674 25.7318 34.5232 27.4831C33.2394 27.8946 30.4607 28.7847 27.5357 29.7321C26.4144 30.0958 25.2607 30.4691 24.1719 30.8232C24.0907 30.7753 24.0257 30.7275 23.9444 30.6796C18.1285 27.0237 7.39053 24.4398 7.84553 19.5302C8.00803 17.7405 9.06428 13.0415 28.4944 7.33762C44.4194 2.6673 57.1513 3.94973 59.3434 6.80168C62.4959 10.8691 52.5363 18.4392 35.9987 19.5302C29.6953 19.9417 26.3819 18.5062 25.5532 17.9702C24.6919 17.4056 24.5619 17.3769 24.2369 17.4821C23.7007 17.6544 24.0419 18.1521 24.2369 18.4487C24.7244 19.2048 26.7557 20.5446 30.2153 21.2146C33.254 21.7984 40.6445 22.1238 49.5804 20.0853C59.6197 17.8075 67.4343 11.4624 65.143 6.1509C62.8095 0.753241 47.6125 -1.01727 33.2427 1.98781C24.6805 3.77746 15.4213 6.59113 8.76041 10.2566C0.848282 14.6206 -0.417594 18.42 0.102406 20.0087C1.95328 25.6456 15.145 29.3206 20.4247 32.0386C20.1647 32.1247 19.9209 32.2013 19.6934 32.2779C17.0463 33.053 6.98916 36.1538 4.47203 39.4269C1.62828 43.1402 4.94328 45.8007 7.11916 46.1644C13.91 47.2745 20.8634 45.2743 24.5993 41.9917C28.3352 38.7091 27.8818 34.4216 26.1593 32.4693C26.143 32.4405 26.1105 32.4214 26.0943 32.3927C26.7768 32.1534 27.4755 31.9142 28.1743 31.6749C29.5214 31.206 30.8377 30.7753 31.9914 30.4021C31.3414 31.4357 30.8702 32.6798 30.6264 34.479C30.3339 36.5845 31.8127 39.312 33.7302 40.3839C34.5752 40.8529 35.5973 40.8624 36.231 40.8624C38.4735 40.8624 39.481 39.7714 40.6007 38.4698C41.9819 36.8812 43.2007 35.0341 43.2007 35.0341C43.2007 35.0341 41.6732 40.0298 45.8494 40.0298C47.3753 40.0298 48.9028 38.8718 49.5869 38.2784V38.288C49.5869 38.288 49.6194 38.2497 49.7007 38.1732C49.8632 38.0296 49.9444 37.9435 49.9444 37.9435V37.9148C50.5619 37.2927 51.9107 35.8667 53.9403 33.5124C56.5728 30.4691 59.0899 26.6696 59.0899 26.6696C59.3331 27.5049 59.6697 28.3297 60.0974 29.1388C60.5524 30.048 61.5112 31.0433 62.2749 32.0099C61.6574 32.5075 61.2837 32.7946 61.2837 32.7946C61.2849 32.802 61.2906 32.8088 61.2999 32.8138C60.8124 33.1966 60.2599 33.6081 59.6912 34.0101C57.6128 35.4648 55.1412 37.13 54.8162 37.6085C54.4262 38.1732 54.5237 38.5943 55.2712 38.9196C55.8237 39.1685 56.7987 39.2068 57.8208 39.1589C59.6895 39.0823 61.0058 38.8144 61.6395 38.6421C62.8079 38.3954 63.9121 38.0539 64.9204 37.6277C66.9517 36.7472 68.1867 35.4839 68.0729 33.8187C68.0079 32.8999 67.5042 31.9812 66.8867 31.1198C67.0654 30.9667 67.2604 30.804 67.4392 30.6413C70.655 27.8755 73.1413 24.8398 73.1413 24.8398C73.3845 25.675 73.7211 26.4998 74.1488 27.3089C74.5388 28.0841 75.3009 28.9359 75.9997 29.7685C72.9788 31.2136 71.11 32.8884 70.46 33.989C69.2575 36.0275 70.2 36.9463 71.9713 37.1568C72.7675 37.2525 73.905 37.0324 74.75 36.8218C76.005 36.5757 77.1882 36.2174 78.2584 35.7595C80.2897 34.8791 82.2543 33.6445 82.1243 31.9697C82.0755 31.2136 81.718 30.4576 81.2468 29.7302C83.798 29.0986 87.1114 28.7541 91.3364 29.0412C100.384 29.6632 102.156 32.9937 101.814 34.3814C101.473 35.7691 99.5719 36.5443 98.9382 36.774C98.3044 37.0037 98.1094 37.0898 98.1582 37.2621C98.2394 37.5109 98.5319 37.5013 99.0682 37.4439C99.8157 37.3673 103.812 36.3146 103.99 33.7402C104.25 30.4863 98.9382 26.907 89.5278 26.9357L89.5327 26.9376ZM19.7909 40.7859C16.8025 42.7095 12.61 43.4368 10.8079 42.8243C8.87416 42.1621 9.63791 39.3312 13.325 37.2812C15.5675 36.0371 18.4584 34.8886 20.3759 34.1804C20.8147 34.0273 21.4484 33.7976 22.2284 33.5201C22.3584 33.4722 22.4234 33.4531 22.4234 33.4531C22.5697 33.3957 22.7322 33.3478 22.8947 33.2904C24.2418 36.1998 22.9434 38.7646 19.7909 40.7839V40.7859ZM41.6244 32.0386C40.5844 33.5411 38.3923 37.3693 37.0598 37.1683C35.9223 36.996 35.2235 34.0771 36.8323 31.206C37.6448 29.7609 39.3673 28.0382 40.391 27.3683C42.0307 26.2868 43.8344 25.9423 44.2569 26.373C44.8257 26.9376 42.2744 31.1007 41.6244 32.0386ZM59.6619 37.1109C59.2232 37.2448 58.8169 37.331 58.6219 37.264C58.4757 37.2161 58.8007 37.0343 58.8007 37.0343C58.8007 37.0343 61.0594 35.6083 61.9532 34.9575C62.4732 34.5747 63.0744 34.1249 63.7228 33.6273C63.7228 33.6751 63.739 33.723 63.739 33.7804C63.7179 35.4935 60.9245 36.6515 59.657 37.1109H59.6619ZM73.5687 35.2446C73.2437 35.1107 73.2924 34.6609 74.3812 33.2636C74.8037 32.7181 75.777 31.7993 77.4687 30.9189C77.6602 31.2522 77.7643 31.6007 77.7774 31.9525C77.7612 34.1058 75.1449 34.9097 73.5703 35.2446H73.5687Z" fill="#FEA609"/>
</svg>
