<svg width="25" height="25" viewBox="0 0 34 20" fill="none" xmlns="http://www.w3.org/2000/svg">
<path d="M17 0C12.4875 0 9.66709 2.21649 8.539 6.64935C10.2312 4.43286 12.2054 3.60169 14.4617 4.15584C15.749 4.47195 16.6691 5.38948 17.6876 6.40494C19.3467 8.05935 21.2669 9.97403 25.461 9.97403C29.9735 9.97403 32.7939 7.75753 33.922 3.32468C32.2298 5.54117 30.2556 6.37234 27.9993 5.81818C26.712 5.50208 25.7919 4.58455 24.7734 3.56909C23.1143 1.91468 21.1942 0 17 0ZM8.539 9.97403C4.02651 9.97403 1.20609 12.1905 0.0780029 16.6234C1.7702 14.4069 3.74439 13.5757 6.0007 14.1299C7.28797 14.446 8.2081 15.3635 9.22659 16.379C10.8857 18.0334 12.8059 19.9481 17 19.9481C21.5125 19.9481 24.3329 17.7316 25.461 13.2987C23.7688 15.5152 21.7946 16.3464 19.5383 15.7922C18.251 15.4761 17.3309 14.5586 16.3124 13.5431C14.6533 11.8887 12.7331 9.97403 8.539 9.97403Z" fill="#FEA609"/>
</svg>
